<?xml version="1.0" encoding="UTF-8" standalone="no"?>
<!-- Created with Inkscape (http://www.inkscape.org/) -->

<svg
   width="210mm"
   height="297mm"
   viewBox="0 0 210 297"
   version="1.1"
   id="svg5"
   xml:space="preserve"
   inkscape:version="1.2.1 (9c6d41e410, 2022-07-14)"
   sodipodi:docname="martillo.svg"
   inkscape:export-filename="martillo.png"
   inkscape:export-xdpi="152.99765"
   inkscape:export-ydpi="152.99765"
   xmlns:inkscape="http://www.inkscape.org/namespaces/inkscape"
   xmlns:sodipodi="http://sodipodi.sourceforge.net/DTD/sodipodi-0.dtd"
   xmlns="http://www.w3.org/2000/svg"
   xmlns:svg="http://www.w3.org/2000/svg"><sodipodi:namedview
     id="namedview7"
     pagecolor="#ffffff"
     bordercolor="#666666"
     borderopacity="1.0"
     inkscape:showpageshadow="2"
     inkscape:pageopacity="0.0"
     inkscape:pagecheckerboard="0"
     inkscape:deskcolor="#d1d1d1"
     inkscape:document-units="mm"
     showgrid="false"
     showguides="false"
     inkscape:zoom="0.46769781"
     inkscape:cx="126.14983"
     inkscape:cy="547.36198"
     inkscape:window-width="1366"
     inkscape:window-height="705"
     inkscape:window-x="-8"
     inkscape:window-y="-8"
     inkscape:window-maximized="1"
     inkscape:current-layer="layer1" /><defs
     id="defs2" /><g
     inkscape:label="Capa 1"
     inkscape:groupmode="layer"
     id="layer1"><g
       id="g1195"
       inkscape:label="martillo"
       transform="matrix(0.42593097,0,0,0.42849585,24.987948,48.542545)"
       inkscape:export-filename="g1195.png"
       inkscape:export-xdpi="152.99763"
       inkscape:export-ydpi="152.99763"><g
         id="g1185"
         inkscape:label="mango"><path
           style="fill:#b47d2a;fill-opacity:1;stroke:none;stroke-width:0.264583px;stroke-linecap:butt;stroke-linejoin:miter;stroke-opacity:1"
           d="m 295.08127,283.01387 c 31.13074,4.09177 39.67103,-21.43702 35.52328,-39.95183 C 284.10716,201.89464 246.53897,146.84445 203.18388,99.698296 L 122.4694,3.4507878 C 106.18746,56.94521 94.493881,37.790067 81.085773,45.781784 l 50.937617,56.866456 z"
           id="path302"
           sodipodi:nodetypes="ccccccc" /><path
           style="fill:#80591e;fill-opacity:1;stroke:none;stroke-width:0.264583px;stroke-linecap:butt;stroke-linejoin:miter;stroke-opacity:1"
           d="m 298.35812,279.57026 c 31.13074,4.09177 39.67103,-21.43702 35.52328,-39.95183 C 287.38401,198.45103 249.81582,143.40084 206.46073,96.254685 L 125.74625,0.00717951 C 109.46431,53.501602 97.77073,34.346459 84.362622,42.338176 l 50.937618,56.866459 z"
           id="path302-2"
           sodipodi:nodetypes="ccccccc" /><path
           style="fill:#73501b;fill-opacity:1;stroke:none;stroke-width:0.264583px;stroke-linecap:butt;stroke-linejoin:miter;stroke-opacity:1"
           d="m 303.9584,273.96998 c 31.13074,4.09177 39.67103,-21.43702 35.52328,-39.95183 C 292.98429,192.85075 255.4161,137.80056 212.06101,90.654401 L 131.34653,-5.5931045 C 115.06459,47.901317 103.37101,28.746174 89.962909,36.737891 l 50.937611,56.86646 z"
           id="path302-2-2"
           sodipodi:nodetypes="ccccccc" /></g><g
         id="g1180"
         inkscape:label="cabeza"><path
           style="fill:#959595;fill-opacity:1;stroke:none;stroke-width:0.244273px;stroke-linecap:butt;stroke-linejoin:miter;stroke-opacity:1"
           d="m 52.052222,65.590633 c 0.844583,14.37241 10.505883,30.512573 0.954911,43.802377 -11.28425,11.0542 -28.722206,8.38356 -43.0744061,6.98904 -8.95389547,-1.98957 -16.187281,-8.86564 -24.1025759,-13.40363 -16.188813,-11.098999 -32.278606,-23.936351 -41.248288,-41.819555 -7.904077,-9.05043 0.704524,-22.64486 3.85462,-32.681105 19.30722,-42.878301 48.4577306,-81.735712 85.27908,-111.108038 20.139228,-15.195991 43.856203,-28.671352 69.654837,-29.271722 18.26106,0.0316 38.47788,9.30567 43.82087,28.07544 5.48282,18.44882 1.9232,38.798786 -5.51348,56.086894 C 122.31697,-8.8077982 102.92319,10.121517 83.442895,28.895467 72.60895,40.808571 63.128679,53.889835 52.052222,65.590633 Z"
           id="path989-8"
           sodipodi:nodetypes="ccccccc" /><path
           style="fill:#7c7c7c;fill-opacity:1;stroke:none;stroke-width:0.264583px;stroke-linecap:butt;stroke-linejoin:miter;stroke-opacity:1"
           d="M 93.20475,60.003061 C 77.818353,76.778322 66.102759,96.792079 49.331602,112.27554 40.228923,115.20142 31.690909,103.76054 23.109531,100.25511 5.0872081,88.405707 -13.268933,74.931989 -23.201184,55.202816 c -9.10372,-8.563146 0.037,-22.764246 3.638608,-32.578558 20.7871349,-41.548888 53.185862,-77.532895 92.596163,-102.181687 18.577921,-11.28212 39.291193,-19.50646 60.973253,-22.047751 19.80957,8.364299 38.7822,20.772648 51.85302,38.111627 5.1546,7.102623 9.74676,19.658997 1.05351,25.695018 -19.38907,18.87064 -38.62508,37.9270164 -58.27034,56.502417 -12.35387,13.297243 -22.9505,28.118576 -35.43828,41.299179 z"
           id="path989"
           sodipodi:nodetypes="ccccccc" /><path
           style="fill:#c1c1c1;fill-opacity:1;stroke:none;stroke-width:0.264583px;stroke-linecap:butt;stroke-linejoin:miter;stroke-opacity:1"
           d="m -58.402979,57.202919 c 10.53387,-1.733422 21.067741,-3.466845 31.601611,-5.200267 19.657985,-48.9741454 48.909497,-96.793732 94.557982,-125.399806 20.367687,-12.997889 43.162776,-21.93189 66.650246,-27.407986 -7.44675,-11.55439 -22.33481,-11.41546 -34.439615,-12.39091 -18.027323,-1.16509 -34.2234,9.22635 -49.204276,17.963111 -39.366203,25.738196 -74.504032,59.841312 -96.429102,101.8185366 -7.78868,15.6616364 -13.318745,32.9531274 -12.736846,50.6173214 z"
           id="path1131"
           sodipodi:nodetypes="ccccc" /></g></g></g></svg>
